<mxfile host="app.diagrams.net" agent="Mozilla/5.0 (Macintosh; Intel Mac OS X 10_15_7) AppleWebKit/537.36 (KHTML, like Gecko) Chrome/128.0.0.0 Safari/537.36" version="24.7.8">
  <diagram name="第 1 页" id="0qoJYBnCzfJsO3U_4i1J">
    <mxGraphModel dx="2010" dy="871" grid="0" gridSize="10" guides="1" tooltips="1" connect="1" arrows="1" fold="1" page="0" pageScale="1" pageWidth="827" pageHeight="1169" math="0" shadow="0">
      <root>
        <mxCell id="0" />
        <mxCell id="1" parent="0" />
        <mxCell id="F0Dnd6pqvIeHIEO3UCSV-21" style="edgeStyle=orthogonalEdgeStyle;rounded=0;orthogonalLoop=1;jettySize=auto;html=1;exitX=1;exitY=0.5;exitDx=0;exitDy=0;entryX=0;entryY=0.5;entryDx=0;entryDy=0;startArrow=classic;startFill=1;" edge="1" parent="1" source="F0Dnd6pqvIeHIEO3UCSV-1" target="F0Dnd6pqvIeHIEO3UCSV-2">
          <mxGeometry relative="1" as="geometry" />
        </mxCell>
        <mxCell id="F0Dnd6pqvIeHIEO3UCSV-42" style="edgeStyle=orthogonalEdgeStyle;rounded=0;orthogonalLoop=1;jettySize=auto;html=1;exitX=0.5;exitY=0;exitDx=0;exitDy=0;entryX=0.5;entryY=1;entryDx=0;entryDy=0;endArrow=none;endFill=0;dashed=1;" edge="1" parent="1" source="F0Dnd6pqvIeHIEO3UCSV-44" target="F0Dnd6pqvIeHIEO3UCSV-40">
          <mxGeometry relative="1" as="geometry" />
        </mxCell>
        <mxCell id="F0Dnd6pqvIeHIEO3UCSV-1" value="1" style="rounded=0;whiteSpace=wrap;html=1;fontSize=15;" vertex="1" parent="1">
          <mxGeometry x="120" y="430" width="40" height="40" as="geometry" />
        </mxCell>
        <mxCell id="F0Dnd6pqvIeHIEO3UCSV-22" style="edgeStyle=orthogonalEdgeStyle;rounded=0;orthogonalLoop=1;jettySize=auto;html=1;exitX=1;exitY=0.5;exitDx=0;exitDy=0;entryX=0;entryY=0.5;entryDx=0;entryDy=0;startArrow=classic;startFill=1;" edge="1" parent="1" source="F0Dnd6pqvIeHIEO3UCSV-2" target="F0Dnd6pqvIeHIEO3UCSV-3">
          <mxGeometry relative="1" as="geometry" />
        </mxCell>
        <mxCell id="F0Dnd6pqvIeHIEO3UCSV-2" value="2" style="rounded=0;whiteSpace=wrap;html=1;fontSize=15;" vertex="1" parent="1">
          <mxGeometry x="190" y="430" width="40" height="40" as="geometry" />
        </mxCell>
        <mxCell id="F0Dnd6pqvIeHIEO3UCSV-23" style="edgeStyle=orthogonalEdgeStyle;rounded=0;orthogonalLoop=1;jettySize=auto;html=1;exitX=1;exitY=0.5;exitDx=0;exitDy=0;entryX=0;entryY=0.5;entryDx=0;entryDy=0;startArrow=classic;startFill=1;" edge="1" parent="1" source="F0Dnd6pqvIeHIEO3UCSV-3" target="F0Dnd6pqvIeHIEO3UCSV-4">
          <mxGeometry relative="1" as="geometry" />
        </mxCell>
        <mxCell id="F0Dnd6pqvIeHIEO3UCSV-3" value="3" style="rounded=0;whiteSpace=wrap;html=1;fontSize=15;" vertex="1" parent="1">
          <mxGeometry x="260" y="430" width="40" height="40" as="geometry" />
        </mxCell>
        <mxCell id="F0Dnd6pqvIeHIEO3UCSV-24" style="edgeStyle=orthogonalEdgeStyle;rounded=0;orthogonalLoop=1;jettySize=auto;html=1;exitX=1;exitY=0.5;exitDx=0;exitDy=0;entryX=0;entryY=0.5;entryDx=0;entryDy=0;startArrow=classic;startFill=1;" edge="1" parent="1" source="F0Dnd6pqvIeHIEO3UCSV-4" target="F0Dnd6pqvIeHIEO3UCSV-5">
          <mxGeometry relative="1" as="geometry" />
        </mxCell>
        <mxCell id="F0Dnd6pqvIeHIEO3UCSV-4" value="4" style="rounded=0;whiteSpace=wrap;html=1;fontSize=15;" vertex="1" parent="1">
          <mxGeometry x="333.5" y="430" width="40" height="40" as="geometry" />
        </mxCell>
        <mxCell id="F0Dnd6pqvIeHIEO3UCSV-25" style="edgeStyle=orthogonalEdgeStyle;rounded=0;orthogonalLoop=1;jettySize=auto;html=1;exitX=1;exitY=0.5;exitDx=0;exitDy=0;entryX=0;entryY=0.5;entryDx=0;entryDy=0;startArrow=classic;startFill=1;" edge="1" parent="1" source="F0Dnd6pqvIeHIEO3UCSV-5" target="F0Dnd6pqvIeHIEO3UCSV-6">
          <mxGeometry relative="1" as="geometry" />
        </mxCell>
        <mxCell id="F0Dnd6pqvIeHIEO3UCSV-59" style="edgeStyle=orthogonalEdgeStyle;rounded=0;orthogonalLoop=1;jettySize=auto;html=1;exitX=0.5;exitY=0;exitDx=0;exitDy=0;entryX=0.5;entryY=1;entryDx=0;entryDy=0;dashed=1;endArrow=none;endFill=0;" edge="1" parent="1" source="F0Dnd6pqvIeHIEO3UCSV-5" target="F0Dnd6pqvIeHIEO3UCSV-48">
          <mxGeometry relative="1" as="geometry" />
        </mxCell>
        <mxCell id="F0Dnd6pqvIeHIEO3UCSV-5" value="5" style="rounded=0;whiteSpace=wrap;html=1;fontSize=15;" vertex="1" parent="1">
          <mxGeometry x="403.5" y="430" width="40" height="40" as="geometry" />
        </mxCell>
        <mxCell id="F0Dnd6pqvIeHIEO3UCSV-26" style="edgeStyle=orthogonalEdgeStyle;rounded=0;orthogonalLoop=1;jettySize=auto;html=1;exitX=1;exitY=0.5;exitDx=0;exitDy=0;entryX=0;entryY=0.5;entryDx=0;entryDy=0;startArrow=classic;startFill=1;" edge="1" parent="1" source="F0Dnd6pqvIeHIEO3UCSV-6" target="F0Dnd6pqvIeHIEO3UCSV-7">
          <mxGeometry relative="1" as="geometry" />
        </mxCell>
        <mxCell id="F0Dnd6pqvIeHIEO3UCSV-6" value="6" style="rounded=0;whiteSpace=wrap;html=1;fontSize=15;" vertex="1" parent="1">
          <mxGeometry x="473.5" y="430" width="40" height="40" as="geometry" />
        </mxCell>
        <mxCell id="F0Dnd6pqvIeHIEO3UCSV-27" style="edgeStyle=orthogonalEdgeStyle;rounded=0;orthogonalLoop=1;jettySize=auto;html=1;exitX=1;exitY=0.5;exitDx=0;exitDy=0;entryX=0;entryY=0.5;entryDx=0;entryDy=0;startArrow=classic;startFill=1;" edge="1" parent="1" source="F0Dnd6pqvIeHIEO3UCSV-7" target="F0Dnd6pqvIeHIEO3UCSV-8">
          <mxGeometry relative="1" as="geometry" />
        </mxCell>
        <mxCell id="F0Dnd6pqvIeHIEO3UCSV-7" value="7" style="rounded=0;whiteSpace=wrap;html=1;fontSize=15;" vertex="1" parent="1">
          <mxGeometry x="540" y="430" width="40" height="40" as="geometry" />
        </mxCell>
        <mxCell id="F0Dnd6pqvIeHIEO3UCSV-28" style="edgeStyle=orthogonalEdgeStyle;rounded=0;orthogonalLoop=1;jettySize=auto;html=1;exitX=1;exitY=0.5;exitDx=0;exitDy=0;entryX=0;entryY=0.5;entryDx=0;entryDy=0;" edge="1" parent="1" source="F0Dnd6pqvIeHIEO3UCSV-8" target="F0Dnd6pqvIeHIEO3UCSV-9">
          <mxGeometry relative="1" as="geometry" />
        </mxCell>
        <mxCell id="F0Dnd6pqvIeHIEO3UCSV-8" value="8" style="rounded=0;whiteSpace=wrap;html=1;fontSize=15;" vertex="1" parent="1">
          <mxGeometry x="610" y="430" width="40" height="40" as="geometry" />
        </mxCell>
        <mxCell id="F0Dnd6pqvIeHIEO3UCSV-29" style="edgeStyle=orthogonalEdgeStyle;rounded=0;orthogonalLoop=1;jettySize=auto;html=1;exitX=1;exitY=0.5;exitDx=0;exitDy=0;startArrow=classic;startFill=1;" edge="1" parent="1" source="F0Dnd6pqvIeHIEO3UCSV-9" target="F0Dnd6pqvIeHIEO3UCSV-10">
          <mxGeometry relative="1" as="geometry" />
        </mxCell>
        <mxCell id="F0Dnd6pqvIeHIEO3UCSV-9" value="9" style="rounded=0;whiteSpace=wrap;html=1;fontSize=15;" vertex="1" parent="1">
          <mxGeometry x="680" y="430" width="40" height="40" as="geometry" />
        </mxCell>
        <mxCell id="F0Dnd6pqvIeHIEO3UCSV-30" style="edgeStyle=orthogonalEdgeStyle;rounded=0;orthogonalLoop=1;jettySize=auto;html=1;exitX=1;exitY=0.5;exitDx=0;exitDy=0;entryX=0;entryY=0.5;entryDx=0;entryDy=0;startArrow=classic;startFill=1;" edge="1" parent="1" source="F0Dnd6pqvIeHIEO3UCSV-10" target="F0Dnd6pqvIeHIEO3UCSV-11">
          <mxGeometry relative="1" as="geometry" />
        </mxCell>
        <mxCell id="F0Dnd6pqvIeHIEO3UCSV-57" style="edgeStyle=orthogonalEdgeStyle;rounded=0;orthogonalLoop=1;jettySize=auto;html=1;exitX=0.5;exitY=0;exitDx=0;exitDy=0;entryX=0.5;entryY=1;entryDx=0;entryDy=0;dashed=1;endArrow=none;endFill=0;" edge="1" parent="1" source="F0Dnd6pqvIeHIEO3UCSV-10" target="F0Dnd6pqvIeHIEO3UCSV-41">
          <mxGeometry relative="1" as="geometry" />
        </mxCell>
        <mxCell id="F0Dnd6pqvIeHIEO3UCSV-10" value="10" style="rounded=0;whiteSpace=wrap;html=1;fontSize=15;" vertex="1" parent="1">
          <mxGeometry x="753.5" y="430" width="40" height="40" as="geometry" />
        </mxCell>
        <mxCell id="F0Dnd6pqvIeHIEO3UCSV-31" style="edgeStyle=orthogonalEdgeStyle;rounded=0;orthogonalLoop=1;jettySize=auto;html=1;exitX=1;exitY=0.5;exitDx=0;exitDy=0;entryX=0;entryY=0.5;entryDx=0;entryDy=0;startArrow=classic;startFill=1;" edge="1" parent="1" source="F0Dnd6pqvIeHIEO3UCSV-11" target="F0Dnd6pqvIeHIEO3UCSV-12">
          <mxGeometry relative="1" as="geometry" />
        </mxCell>
        <mxCell id="F0Dnd6pqvIeHIEO3UCSV-11" value="11" style="rounded=0;whiteSpace=wrap;html=1;fontSize=15;" vertex="1" parent="1">
          <mxGeometry x="823.5" y="430" width="40" height="40" as="geometry" />
        </mxCell>
        <mxCell id="F0Dnd6pqvIeHIEO3UCSV-32" style="edgeStyle=orthogonalEdgeStyle;rounded=0;orthogonalLoop=1;jettySize=auto;html=1;exitX=1;exitY=0.5;exitDx=0;exitDy=0;entryX=0;entryY=0.5;entryDx=0;entryDy=0;startArrow=classic;startFill=1;" edge="1" parent="1" source="F0Dnd6pqvIeHIEO3UCSV-12" target="F0Dnd6pqvIeHIEO3UCSV-13">
          <mxGeometry relative="1" as="geometry" />
        </mxCell>
        <mxCell id="F0Dnd6pqvIeHIEO3UCSV-12" value="12" style="rounded=0;whiteSpace=wrap;html=1;fontSize=15;" vertex="1" parent="1">
          <mxGeometry x="893.5" y="430" width="40" height="40" as="geometry" />
        </mxCell>
        <mxCell id="F0Dnd6pqvIeHIEO3UCSV-33" style="edgeStyle=orthogonalEdgeStyle;rounded=0;orthogonalLoop=1;jettySize=auto;html=1;exitX=1;exitY=0.5;exitDx=0;exitDy=0;startArrow=classic;startFill=1;" edge="1" parent="1" source="F0Dnd6pqvIeHIEO3UCSV-13" target="F0Dnd6pqvIeHIEO3UCSV-14">
          <mxGeometry relative="1" as="geometry" />
        </mxCell>
        <mxCell id="F0Dnd6pqvIeHIEO3UCSV-13" value="13" style="rounded=0;whiteSpace=wrap;html=1;fontSize=15;" vertex="1" parent="1">
          <mxGeometry x="960" y="430" width="40" height="40" as="geometry" />
        </mxCell>
        <mxCell id="F0Dnd6pqvIeHIEO3UCSV-34" style="edgeStyle=orthogonalEdgeStyle;rounded=0;orthogonalLoop=1;jettySize=auto;html=1;exitX=1;exitY=0.5;exitDx=0;exitDy=0;entryX=0;entryY=0.5;entryDx=0;entryDy=0;startArrow=classic;startFill=1;" edge="1" parent="1" source="F0Dnd6pqvIeHIEO3UCSV-14" target="F0Dnd6pqvIeHIEO3UCSV-15">
          <mxGeometry relative="1" as="geometry" />
        </mxCell>
        <mxCell id="F0Dnd6pqvIeHIEO3UCSV-14" value="14" style="rounded=0;whiteSpace=wrap;html=1;fontSize=15;" vertex="1" parent="1">
          <mxGeometry x="1030" y="430" width="40" height="40" as="geometry" />
        </mxCell>
        <mxCell id="F0Dnd6pqvIeHIEO3UCSV-35" style="edgeStyle=orthogonalEdgeStyle;rounded=0;orthogonalLoop=1;jettySize=auto;html=1;exitX=1;exitY=0.5;exitDx=0;exitDy=0;startArrow=classic;startFill=1;" edge="1" parent="1" source="F0Dnd6pqvIeHIEO3UCSV-15" target="F0Dnd6pqvIeHIEO3UCSV-16">
          <mxGeometry relative="1" as="geometry" />
        </mxCell>
        <mxCell id="F0Dnd6pqvIeHIEO3UCSV-58" style="edgeStyle=orthogonalEdgeStyle;rounded=0;orthogonalLoop=1;jettySize=auto;html=1;exitX=0.5;exitY=0;exitDx=0;exitDy=0;entryX=0.5;entryY=1;entryDx=0;entryDy=0;dashed=1;endArrow=none;endFill=0;" edge="1" parent="1" source="F0Dnd6pqvIeHIEO3UCSV-15" target="F0Dnd6pqvIeHIEO3UCSV-54">
          <mxGeometry relative="1" as="geometry" />
        </mxCell>
        <mxCell id="F0Dnd6pqvIeHIEO3UCSV-15" value="15" style="rounded=0;whiteSpace=wrap;html=1;fontSize=15;" vertex="1" parent="1">
          <mxGeometry x="1100" y="430" width="40" height="40" as="geometry" />
        </mxCell>
        <mxCell id="F0Dnd6pqvIeHIEO3UCSV-36" style="edgeStyle=orthogonalEdgeStyle;rounded=0;orthogonalLoop=1;jettySize=auto;html=1;exitX=1;exitY=0.5;exitDx=0;exitDy=0;entryX=0;entryY=0.5;entryDx=0;entryDy=0;startArrow=classic;startFill=1;" edge="1" parent="1" source="F0Dnd6pqvIeHIEO3UCSV-16" target="F0Dnd6pqvIeHIEO3UCSV-17">
          <mxGeometry relative="1" as="geometry" />
        </mxCell>
        <mxCell id="F0Dnd6pqvIeHIEO3UCSV-16" value="16" style="rounded=0;whiteSpace=wrap;html=1;fontSize=15;" vertex="1" parent="1">
          <mxGeometry x="1173.5" y="430" width="40" height="40" as="geometry" />
        </mxCell>
        <mxCell id="F0Dnd6pqvIeHIEO3UCSV-37" style="edgeStyle=orthogonalEdgeStyle;rounded=0;orthogonalLoop=1;jettySize=auto;html=1;exitX=1;exitY=0.5;exitDx=0;exitDy=0;entryX=0;entryY=0.5;entryDx=0;entryDy=0;startArrow=classic;startFill=1;" edge="1" parent="1" source="F0Dnd6pqvIeHIEO3UCSV-17" target="F0Dnd6pqvIeHIEO3UCSV-18">
          <mxGeometry relative="1" as="geometry" />
        </mxCell>
        <mxCell id="F0Dnd6pqvIeHIEO3UCSV-17" value="17" style="rounded=0;whiteSpace=wrap;html=1;fontSize=15;" vertex="1" parent="1">
          <mxGeometry x="1243.5" y="430" width="40" height="40" as="geometry" />
        </mxCell>
        <mxCell id="F0Dnd6pqvIeHIEO3UCSV-38" style="edgeStyle=orthogonalEdgeStyle;rounded=0;orthogonalLoop=1;jettySize=auto;html=1;exitX=1;exitY=0.5;exitDx=0;exitDy=0;entryX=0;entryY=0.5;entryDx=0;entryDy=0;startArrow=classic;startFill=1;" edge="1" parent="1" source="F0Dnd6pqvIeHIEO3UCSV-18" target="F0Dnd6pqvIeHIEO3UCSV-19">
          <mxGeometry relative="1" as="geometry" />
        </mxCell>
        <mxCell id="F0Dnd6pqvIeHIEO3UCSV-18" value="18" style="rounded=0;whiteSpace=wrap;html=1;fontSize=15;" vertex="1" parent="1">
          <mxGeometry x="1313.5" y="430" width="40" height="40" as="geometry" />
        </mxCell>
        <mxCell id="F0Dnd6pqvIeHIEO3UCSV-39" style="edgeStyle=orthogonalEdgeStyle;rounded=0;orthogonalLoop=1;jettySize=auto;html=1;exitX=1;exitY=0.5;exitDx=0;exitDy=0;entryX=0;entryY=0.5;entryDx=0;entryDy=0;startArrow=classic;startFill=1;" edge="1" parent="1" source="F0Dnd6pqvIeHIEO3UCSV-19" target="F0Dnd6pqvIeHIEO3UCSV-20">
          <mxGeometry relative="1" as="geometry" />
        </mxCell>
        <mxCell id="F0Dnd6pqvIeHIEO3UCSV-19" value="19" style="rounded=0;whiteSpace=wrap;html=1;fontSize=15;" vertex="1" parent="1">
          <mxGeometry x="1380" y="430" width="40" height="40" as="geometry" />
        </mxCell>
        <mxCell id="F0Dnd6pqvIeHIEO3UCSV-20" value="20" style="rounded=0;whiteSpace=wrap;html=1;fontSize=15;" vertex="1" parent="1">
          <mxGeometry x="1450" y="430" width="40" height="40" as="geometry" />
        </mxCell>
        <mxCell id="F0Dnd6pqvIeHIEO3UCSV-43" style="edgeStyle=orthogonalEdgeStyle;rounded=0;orthogonalLoop=1;jettySize=auto;html=1;exitX=1;exitY=0.5;exitDx=0;exitDy=0;entryX=0;entryY=0.5;entryDx=0;entryDy=0;" edge="1" parent="1" source="F0Dnd6pqvIeHIEO3UCSV-40" target="F0Dnd6pqvIeHIEO3UCSV-41">
          <mxGeometry relative="1" as="geometry" />
        </mxCell>
        <mxCell id="F0Dnd6pqvIeHIEO3UCSV-47" value="9" style="edgeLabel;html=1;align=center;verticalAlign=middle;resizable=0;points=[];" vertex="1" connectable="0" parent="F0Dnd6pqvIeHIEO3UCSV-43">
          <mxGeometry x="-0.0349" y="1" relative="1" as="geometry">
            <mxPoint as="offset" />
          </mxGeometry>
        </mxCell>
        <mxCell id="F0Dnd6pqvIeHIEO3UCSV-40" value="1" style="rounded=0;whiteSpace=wrap;html=1;fontSize=15;" vertex="1" parent="1">
          <mxGeometry x="120" y="140" width="40" height="40" as="geometry" />
        </mxCell>
        <mxCell id="F0Dnd6pqvIeHIEO3UCSV-41" value="10" style="rounded=0;whiteSpace=wrap;html=1;fontSize=15;" vertex="1" parent="1">
          <mxGeometry x="753.5" y="140" width="40" height="40" as="geometry" />
        </mxCell>
        <mxCell id="F0Dnd6pqvIeHIEO3UCSV-45" value="" style="edgeStyle=orthogonalEdgeStyle;rounded=0;orthogonalLoop=1;jettySize=auto;html=1;exitX=0.5;exitY=0;exitDx=0;exitDy=0;entryX=0.5;entryY=1;entryDx=0;entryDy=0;endArrow=none;endFill=0;dashed=1;" edge="1" parent="1" source="F0Dnd6pqvIeHIEO3UCSV-1" target="F0Dnd6pqvIeHIEO3UCSV-44">
          <mxGeometry relative="1" as="geometry">
            <mxPoint x="140" y="430" as="sourcePoint" />
            <mxPoint x="140" y="180" as="targetPoint" />
          </mxGeometry>
        </mxCell>
        <mxCell id="F0Dnd6pqvIeHIEO3UCSV-49" style="edgeStyle=orthogonalEdgeStyle;rounded=0;orthogonalLoop=1;jettySize=auto;html=1;exitX=1;exitY=0.5;exitDx=0;exitDy=0;entryX=0;entryY=0.5;entryDx=0;entryDy=0;" edge="1" parent="1" source="F0Dnd6pqvIeHIEO3UCSV-44" target="F0Dnd6pqvIeHIEO3UCSV-48">
          <mxGeometry relative="1" as="geometry" />
        </mxCell>
        <mxCell id="F0Dnd6pqvIeHIEO3UCSV-50" value="4" style="edgeLabel;html=1;align=center;verticalAlign=middle;resizable=0;points=[];" vertex="1" connectable="0" parent="F0Dnd6pqvIeHIEO3UCSV-49">
          <mxGeometry x="-0.048" relative="1" as="geometry">
            <mxPoint as="offset" />
          </mxGeometry>
        </mxCell>
        <mxCell id="F0Dnd6pqvIeHIEO3UCSV-44" value="1" style="rounded=0;whiteSpace=wrap;html=1;fontSize=15;" vertex="1" parent="1">
          <mxGeometry x="120" y="290" width="40" height="40" as="geometry" />
        </mxCell>
        <mxCell id="F0Dnd6pqvIeHIEO3UCSV-55" style="edgeStyle=orthogonalEdgeStyle;rounded=0;orthogonalLoop=1;jettySize=auto;html=1;exitX=1;exitY=0.5;exitDx=0;exitDy=0;entryX=0;entryY=0.5;entryDx=0;entryDy=0;" edge="1" parent="1" source="F0Dnd6pqvIeHIEO3UCSV-46" target="F0Dnd6pqvIeHIEO3UCSV-54">
          <mxGeometry relative="1" as="geometry" />
        </mxCell>
        <mxCell id="F0Dnd6pqvIeHIEO3UCSV-56" value="5" style="edgeLabel;html=1;align=center;verticalAlign=middle;resizable=0;points=[];" vertex="1" connectable="0" parent="F0Dnd6pqvIeHIEO3UCSV-55">
          <mxGeometry x="0.0535" y="-2" relative="1" as="geometry">
            <mxPoint as="offset" />
          </mxGeometry>
        </mxCell>
        <mxCell id="F0Dnd6pqvIeHIEO3UCSV-46" value="10" style="rounded=0;whiteSpace=wrap;html=1;fontSize=15;" vertex="1" parent="1">
          <mxGeometry x="753.5" y="290" width="40" height="40" as="geometry" />
        </mxCell>
        <mxCell id="F0Dnd6pqvIeHIEO3UCSV-51" style="edgeStyle=orthogonalEdgeStyle;rounded=0;orthogonalLoop=1;jettySize=auto;html=1;exitX=1;exitY=0.5;exitDx=0;exitDy=0;" edge="1" parent="1" source="F0Dnd6pqvIeHIEO3UCSV-48" target="F0Dnd6pqvIeHIEO3UCSV-46">
          <mxGeometry relative="1" as="geometry" />
        </mxCell>
        <mxCell id="F0Dnd6pqvIeHIEO3UCSV-52" value="5" style="edgeLabel;html=1;align=center;verticalAlign=middle;resizable=0;points=[];" vertex="1" connectable="0" parent="F0Dnd6pqvIeHIEO3UCSV-51">
          <mxGeometry x="0.0201" y="-1" relative="1" as="geometry">
            <mxPoint as="offset" />
          </mxGeometry>
        </mxCell>
        <mxCell id="F0Dnd6pqvIeHIEO3UCSV-48" value="5" style="rounded=0;whiteSpace=wrap;html=1;fontSize=15;" vertex="1" parent="1">
          <mxGeometry x="403.5" y="290" width="40" height="40" as="geometry" />
        </mxCell>
        <mxCell id="F0Dnd6pqvIeHIEO3UCSV-54" value="15" style="rounded=0;whiteSpace=wrap;html=1;fontSize=15;" vertex="1" parent="1">
          <mxGeometry x="1100" y="290" width="40" height="40" as="geometry" />
        </mxCell>
        <mxCell id="F0Dnd6pqvIeHIEO3UCSV-60" value="一级指针" style="text;html=1;align=center;verticalAlign=middle;resizable=0;points=[];autosize=1;strokeColor=none;fillColor=none;" vertex="1" parent="1">
          <mxGeometry x="50" y="435" width="70" height="30" as="geometry" />
        </mxCell>
        <mxCell id="F0Dnd6pqvIeHIEO3UCSV-61" value="二级指针" style="text;html=1;align=center;verticalAlign=middle;resizable=0;points=[];autosize=1;strokeColor=none;fillColor=none;" vertex="1" parent="1">
          <mxGeometry x="50" y="295" width="70" height="30" as="geometry" />
        </mxCell>
        <mxCell id="F0Dnd6pqvIeHIEO3UCSV-62" value="三级指针" style="text;html=1;align=center;verticalAlign=middle;resizable=0;points=[];autosize=1;strokeColor=none;fillColor=none;" vertex="1" parent="1">
          <mxGeometry x="50" y="145" width="70" height="30" as="geometry" />
        </mxCell>
        <mxCell id="F0Dnd6pqvIeHIEO3UCSV-68" value="" style="group" vertex="1" connectable="0" parent="1">
          <mxGeometry x="-83" y="1016" width="120" height="300" as="geometry" />
        </mxCell>
        <mxCell id="F0Dnd6pqvIeHIEO3UCSV-63" value="&lt;b&gt;SkipList&lt;/b&gt;" style="rounded=0;whiteSpace=wrap;html=1;fontSize=15;" vertex="1" parent="F0Dnd6pqvIeHIEO3UCSV-68">
          <mxGeometry width="120" height="60" as="geometry" />
        </mxCell>
        <mxCell id="F0Dnd6pqvIeHIEO3UCSV-64" value="*header" style="rounded=0;whiteSpace=wrap;html=1;fontSize=15;" vertex="1" parent="F0Dnd6pqvIeHIEO3UCSV-68">
          <mxGeometry y="60" width="120" height="60" as="geometry" />
        </mxCell>
        <mxCell id="F0Dnd6pqvIeHIEO3UCSV-65" value="*tail" style="rounded=0;whiteSpace=wrap;html=1;fontSize=15;" vertex="1" parent="F0Dnd6pqvIeHIEO3UCSV-68">
          <mxGeometry y="120" width="120" height="60" as="geometry" />
        </mxCell>
        <mxCell id="F0Dnd6pqvIeHIEO3UCSV-66" value="length" style="rounded=0;whiteSpace=wrap;html=1;fontSize=15;" vertex="1" parent="F0Dnd6pqvIeHIEO3UCSV-68">
          <mxGeometry y="180" width="120" height="60" as="geometry" />
        </mxCell>
        <mxCell id="F0Dnd6pqvIeHIEO3UCSV-67" value="level" style="rounded=0;whiteSpace=wrap;html=1;fontSize=15;" vertex="1" parent="F0Dnd6pqvIeHIEO3UCSV-68">
          <mxGeometry y="240" width="120" height="60" as="geometry" />
        </mxCell>
        <mxCell id="F0Dnd6pqvIeHIEO3UCSV-69" value="&lt;b&gt;SkipListNode&lt;/b&gt;" style="rounded=0;whiteSpace=wrap;html=1;fontSize=15;" vertex="1" parent="1">
          <mxGeometry x="235" y="1338" width="120" height="60" as="geometry" />
        </mxCell>
        <mxCell id="F0Dnd6pqvIeHIEO3UCSV-70" value="backward" style="rounded=0;whiteSpace=wrap;html=1;fontSize=15;" vertex="1" parent="1">
          <mxGeometry x="235" y="1278" width="120" height="60" as="geometry" />
        </mxCell>
        <mxCell id="F0Dnd6pqvIeHIEO3UCSV-71" value="score" style="rounded=0;whiteSpace=wrap;html=1;fontSize=15;" vertex="1" parent="1">
          <mxGeometry x="235" y="1218" width="120" height="60" as="geometry" />
        </mxCell>
        <mxCell id="F0Dnd6pqvIeHIEO3UCSV-72" value="level[]&lt;div&gt;&lt;br&gt;&lt;/div&gt;" style="rounded=0;whiteSpace=wrap;html=1;fontSize=15;verticalAlign=top;" vertex="1" parent="1">
          <mxGeometry x="235" y="815" width="120" height="403" as="geometry" />
        </mxCell>
        <mxCell id="F0Dnd6pqvIeHIEO3UCSV-77" value="" style="group" vertex="1" connectable="0" parent="1">
          <mxGeometry x="254" y="862" width="82" height="105" as="geometry" />
        </mxCell>
        <mxCell id="F0Dnd6pqvIeHIEO3UCSV-74" value="span" style="rounded=0;whiteSpace=wrap;html=1;" vertex="1" parent="F0Dnd6pqvIeHIEO3UCSV-77">
          <mxGeometry width="82" height="35" as="geometry" />
        </mxCell>
        <mxCell id="F0Dnd6pqvIeHIEO3UCSV-165" style="edgeStyle=orthogonalEdgeStyle;rounded=0;orthogonalLoop=1;jettySize=auto;html=1;exitX=1;exitY=0.5;exitDx=0;exitDy=0;" edge="1" parent="F0Dnd6pqvIeHIEO3UCSV-77" source="F0Dnd6pqvIeHIEO3UCSV-75">
          <mxGeometry relative="1" as="geometry">
            <mxPoint x="738" y="53" as="targetPoint" />
          </mxGeometry>
        </mxCell>
        <mxCell id="F0Dnd6pqvIeHIEO3UCSV-75" value="forward" style="rounded=0;whiteSpace=wrap;html=1;" vertex="1" parent="F0Dnd6pqvIeHIEO3UCSV-77">
          <mxGeometry y="35" width="82" height="35" as="geometry" />
        </mxCell>
        <mxCell id="F0Dnd6pqvIeHIEO3UCSV-76" value="&lt;b&gt;Level3&lt;/b&gt;" style="rounded=0;whiteSpace=wrap;html=1;" vertex="1" parent="F0Dnd6pqvIeHIEO3UCSV-77">
          <mxGeometry y="70" width="82" height="35" as="geometry" />
        </mxCell>
        <mxCell id="F0Dnd6pqvIeHIEO3UCSV-78" value="" style="group" vertex="1" connectable="0" parent="1">
          <mxGeometry x="255" y="978" width="82" height="105" as="geometry" />
        </mxCell>
        <mxCell id="F0Dnd6pqvIeHIEO3UCSV-79" value="span" style="rounded=0;whiteSpace=wrap;html=1;" vertex="1" parent="F0Dnd6pqvIeHIEO3UCSV-78">
          <mxGeometry width="82" height="35" as="geometry" />
        </mxCell>
        <mxCell id="F0Dnd6pqvIeHIEO3UCSV-80" value="forward" style="rounded=0;whiteSpace=wrap;html=1;" vertex="1" parent="F0Dnd6pqvIeHIEO3UCSV-78">
          <mxGeometry y="35" width="82" height="35" as="geometry" />
        </mxCell>
        <mxCell id="F0Dnd6pqvIeHIEO3UCSV-81" value="&lt;b&gt;Level2&lt;/b&gt;" style="rounded=0;whiteSpace=wrap;html=1;" vertex="1" parent="F0Dnd6pqvIeHIEO3UCSV-78">
          <mxGeometry y="70" width="82" height="35" as="geometry" />
        </mxCell>
        <mxCell id="F0Dnd6pqvIeHIEO3UCSV-82" value="" style="group" vertex="1" connectable="0" parent="1">
          <mxGeometry x="255" y="1096" width="82" height="105" as="geometry" />
        </mxCell>
        <mxCell id="F0Dnd6pqvIeHIEO3UCSV-83" value="span" style="rounded=0;whiteSpace=wrap;html=1;" vertex="1" parent="F0Dnd6pqvIeHIEO3UCSV-82">
          <mxGeometry width="82" height="35" as="geometry" />
        </mxCell>
        <mxCell id="F0Dnd6pqvIeHIEO3UCSV-84" value="forward" style="rounded=0;whiteSpace=wrap;html=1;" vertex="1" parent="F0Dnd6pqvIeHIEO3UCSV-82">
          <mxGeometry y="35" width="82" height="35" as="geometry" />
        </mxCell>
        <mxCell id="F0Dnd6pqvIeHIEO3UCSV-85" value="&lt;b&gt;Level1&lt;/b&gt;" style="rounded=0;whiteSpace=wrap;html=1;" vertex="1" parent="F0Dnd6pqvIeHIEO3UCSV-82">
          <mxGeometry y="70" width="82" height="35" as="geometry" />
        </mxCell>
        <mxCell id="F0Dnd6pqvIeHIEO3UCSV-154" style="edgeStyle=orthogonalEdgeStyle;rounded=0;orthogonalLoop=1;jettySize=auto;html=1;exitX=0;exitY=0.5;exitDx=0;exitDy=0;entryX=1;entryY=0.5;entryDx=0;entryDy=0;" edge="1" parent="1" source="F0Dnd6pqvIeHIEO3UCSV-87" target="F0Dnd6pqvIeHIEO3UCSV-134">
          <mxGeometry relative="1" as="geometry" />
        </mxCell>
        <mxCell id="F0Dnd6pqvIeHIEO3UCSV-151" style="edgeStyle=orthogonalEdgeStyle;rounded=0;orthogonalLoop=1;jettySize=auto;html=1;exitX=0;exitY=0.5;exitDx=0;exitDy=0;" edge="1" parent="1" source="F0Dnd6pqvIeHIEO3UCSV-103" target="F0Dnd6pqvIeHIEO3UCSV-69">
          <mxGeometry relative="1" as="geometry" />
        </mxCell>
        <mxCell id="F0Dnd6pqvIeHIEO3UCSV-152" style="edgeStyle=orthogonalEdgeStyle;rounded=0;orthogonalLoop=1;jettySize=auto;html=1;exitX=0;exitY=0.5;exitDx=0;exitDy=0;entryX=1;entryY=0.5;entryDx=0;entryDy=0;" edge="1" parent="1" source="F0Dnd6pqvIeHIEO3UCSV-119" target="F0Dnd6pqvIeHIEO3UCSV-102">
          <mxGeometry relative="1" as="geometry" />
        </mxCell>
        <mxCell id="F0Dnd6pqvIeHIEO3UCSV-153" style="edgeStyle=orthogonalEdgeStyle;rounded=0;orthogonalLoop=1;jettySize=auto;html=1;exitX=0;exitY=0.5;exitDx=0;exitDy=0;entryX=1;entryY=0.5;entryDx=0;entryDy=0;" edge="1" parent="1" source="F0Dnd6pqvIeHIEO3UCSV-135" target="F0Dnd6pqvIeHIEO3UCSV-118">
          <mxGeometry relative="1" as="geometry" />
        </mxCell>
        <mxCell id="F0Dnd6pqvIeHIEO3UCSV-155" style="edgeStyle=orthogonalEdgeStyle;rounded=0;orthogonalLoop=1;jettySize=auto;html=1;exitX=0;exitY=0.5;exitDx=0;exitDy=0;entryX=1;entryY=0.5;entryDx=0;entryDy=0;" edge="1" parent="1" source="F0Dnd6pqvIeHIEO3UCSV-143" target="F0Dnd6pqvIeHIEO3UCSV-86">
          <mxGeometry relative="1" as="geometry" />
        </mxCell>
        <mxCell id="F0Dnd6pqvIeHIEO3UCSV-150" style="edgeStyle=orthogonalEdgeStyle;rounded=0;orthogonalLoop=1;jettySize=auto;html=1;exitX=1;exitY=0.5;exitDx=0;exitDy=0;entryX=0;entryY=0.5;entryDx=0;entryDy=0;" edge="1" parent="1" source="F0Dnd6pqvIeHIEO3UCSV-64" target="F0Dnd6pqvIeHIEO3UCSV-69">
          <mxGeometry relative="1" as="geometry" />
        </mxCell>
        <mxCell id="F0Dnd6pqvIeHIEO3UCSV-156" style="edgeStyle=orthogonalEdgeStyle;rounded=0;orthogonalLoop=1;jettySize=auto;html=1;exitX=1;exitY=0.5;exitDx=0;exitDy=0;entryX=0.5;entryY=1;entryDx=0;entryDy=0;" edge="1" parent="1" source="F0Dnd6pqvIeHIEO3UCSV-65" target="F0Dnd6pqvIeHIEO3UCSV-142">
          <mxGeometry relative="1" as="geometry">
            <Array as="points">
              <mxPoint x="37" y="1434" />
              <mxPoint x="1249" y="1434" />
            </Array>
          </mxGeometry>
        </mxCell>
        <mxCell id="F0Dnd6pqvIeHIEO3UCSV-158" value="" style="group" vertex="1" connectable="0" parent="1">
          <mxGeometry x="438" y="1058" width="120" height="340" as="geometry" />
        </mxCell>
        <mxCell id="F0Dnd6pqvIeHIEO3UCSV-102" value="&lt;b&gt;SkipListNode&lt;/b&gt;" style="rounded=0;whiteSpace=wrap;html=1;fontSize=15;" vertex="1" parent="F0Dnd6pqvIeHIEO3UCSV-158">
          <mxGeometry y="280" width="120" height="60" as="geometry" />
        </mxCell>
        <mxCell id="F0Dnd6pqvIeHIEO3UCSV-103" value="backward" style="rounded=0;whiteSpace=wrap;html=1;fontSize=15;" vertex="1" parent="F0Dnd6pqvIeHIEO3UCSV-158">
          <mxGeometry y="220" width="120" height="60" as="geometry" />
        </mxCell>
        <mxCell id="F0Dnd6pqvIeHIEO3UCSV-104" value="score" style="rounded=0;whiteSpace=wrap;html=1;fontSize=15;" vertex="1" parent="F0Dnd6pqvIeHIEO3UCSV-158">
          <mxGeometry y="160" width="120" height="60" as="geometry" />
        </mxCell>
        <mxCell id="F0Dnd6pqvIeHIEO3UCSV-105" value="level[]&lt;div&gt;&lt;br&gt;&lt;/div&gt;" style="rounded=0;whiteSpace=wrap;html=1;fontSize=15;verticalAlign=top;" vertex="1" parent="F0Dnd6pqvIeHIEO3UCSV-158">
          <mxGeometry width="120" height="160" as="geometry" />
        </mxCell>
        <mxCell id="F0Dnd6pqvIeHIEO3UCSV-114" value="" style="group" vertex="1" connectable="0" parent="F0Dnd6pqvIeHIEO3UCSV-158">
          <mxGeometry x="20" y="38" width="82" height="105" as="geometry" />
        </mxCell>
        <mxCell id="F0Dnd6pqvIeHIEO3UCSV-115" value="span" style="rounded=0;whiteSpace=wrap;html=1;" vertex="1" parent="F0Dnd6pqvIeHIEO3UCSV-114">
          <mxGeometry width="82" height="35" as="geometry" />
        </mxCell>
        <mxCell id="F0Dnd6pqvIeHIEO3UCSV-166" style="edgeStyle=orthogonalEdgeStyle;rounded=0;orthogonalLoop=1;jettySize=auto;html=1;exitX=1;exitY=0.5;exitDx=0;exitDy=0;" edge="1" parent="F0Dnd6pqvIeHIEO3UCSV-114" source="F0Dnd6pqvIeHIEO3UCSV-116">
          <mxGeometry relative="1" as="geometry">
            <mxPoint x="166.66666666666652" y="52.666666666666515" as="targetPoint" />
          </mxGeometry>
        </mxCell>
        <mxCell id="F0Dnd6pqvIeHIEO3UCSV-116" value="forward" style="rounded=0;whiteSpace=wrap;html=1;" vertex="1" parent="F0Dnd6pqvIeHIEO3UCSV-114">
          <mxGeometry y="35" width="82" height="35" as="geometry" />
        </mxCell>
        <mxCell id="F0Dnd6pqvIeHIEO3UCSV-117" value="&lt;b&gt;Level1&lt;/b&gt;" style="rounded=0;whiteSpace=wrap;html=1;" vertex="1" parent="F0Dnd6pqvIeHIEO3UCSV-114">
          <mxGeometry y="70" width="82" height="35" as="geometry" />
        </mxCell>
        <mxCell id="F0Dnd6pqvIeHIEO3UCSV-159" value="" style="group" vertex="1" connectable="0" parent="1">
          <mxGeometry x="627" y="941" width="120" height="457" as="geometry" />
        </mxCell>
        <mxCell id="F0Dnd6pqvIeHIEO3UCSV-118" value="&lt;b&gt;SkipListNode&lt;/b&gt;" style="rounded=0;whiteSpace=wrap;html=1;fontSize=15;" vertex="1" parent="F0Dnd6pqvIeHIEO3UCSV-159">
          <mxGeometry y="397" width="120" height="60" as="geometry" />
        </mxCell>
        <mxCell id="F0Dnd6pqvIeHIEO3UCSV-119" value="backward" style="rounded=0;whiteSpace=wrap;html=1;fontSize=15;" vertex="1" parent="F0Dnd6pqvIeHIEO3UCSV-159">
          <mxGeometry y="337" width="120" height="60" as="geometry" />
        </mxCell>
        <mxCell id="F0Dnd6pqvIeHIEO3UCSV-120" value="score" style="rounded=0;whiteSpace=wrap;html=1;fontSize=15;" vertex="1" parent="F0Dnd6pqvIeHIEO3UCSV-159">
          <mxGeometry y="277" width="120" height="60" as="geometry" />
        </mxCell>
        <mxCell id="F0Dnd6pqvIeHIEO3UCSV-121" value="level[]&lt;div&gt;&lt;br&gt;&lt;/div&gt;" style="rounded=0;whiteSpace=wrap;html=1;fontSize=15;verticalAlign=top;" vertex="1" parent="F0Dnd6pqvIeHIEO3UCSV-159">
          <mxGeometry width="120" height="277" as="geometry" />
        </mxCell>
        <mxCell id="F0Dnd6pqvIeHIEO3UCSV-126" value="" style="group" vertex="1" connectable="0" parent="F0Dnd6pqvIeHIEO3UCSV-159">
          <mxGeometry x="20" y="37" width="82" height="105" as="geometry" />
        </mxCell>
        <mxCell id="F0Dnd6pqvIeHIEO3UCSV-127" value="span" style="rounded=0;whiteSpace=wrap;html=1;" vertex="1" parent="F0Dnd6pqvIeHIEO3UCSV-126">
          <mxGeometry width="82" height="35" as="geometry" />
        </mxCell>
        <mxCell id="F0Dnd6pqvIeHIEO3UCSV-168" style="edgeStyle=orthogonalEdgeStyle;rounded=0;orthogonalLoop=1;jettySize=auto;html=1;exitX=1;exitY=0.5;exitDx=0;exitDy=0;" edge="1" parent="F0Dnd6pqvIeHIEO3UCSV-126" source="F0Dnd6pqvIeHIEO3UCSV-128">
          <mxGeometry relative="1" as="geometry">
            <mxPoint x="336.55555555555566" y="52.888888888888914" as="targetPoint" />
          </mxGeometry>
        </mxCell>
        <mxCell id="F0Dnd6pqvIeHIEO3UCSV-128" value="forward" style="rounded=0;whiteSpace=wrap;html=1;" vertex="1" parent="F0Dnd6pqvIeHIEO3UCSV-126">
          <mxGeometry y="35" width="82" height="35" as="geometry" />
        </mxCell>
        <mxCell id="F0Dnd6pqvIeHIEO3UCSV-129" value="&lt;b&gt;Level2&lt;/b&gt;" style="rounded=0;whiteSpace=wrap;html=1;" vertex="1" parent="F0Dnd6pqvIeHIEO3UCSV-126">
          <mxGeometry y="70" width="82" height="35" as="geometry" />
        </mxCell>
        <mxCell id="F0Dnd6pqvIeHIEO3UCSV-130" value="" style="group" vertex="1" connectable="0" parent="F0Dnd6pqvIeHIEO3UCSV-159">
          <mxGeometry x="20" y="155" width="82" height="105" as="geometry" />
        </mxCell>
        <mxCell id="F0Dnd6pqvIeHIEO3UCSV-131" value="span" style="rounded=0;whiteSpace=wrap;html=1;" vertex="1" parent="F0Dnd6pqvIeHIEO3UCSV-130">
          <mxGeometry width="82" height="35" as="geometry" />
        </mxCell>
        <mxCell id="F0Dnd6pqvIeHIEO3UCSV-167" style="edgeStyle=orthogonalEdgeStyle;rounded=0;orthogonalLoop=1;jettySize=auto;html=1;exitX=1;exitY=0.5;exitDx=0;exitDy=0;" edge="1" parent="F0Dnd6pqvIeHIEO3UCSV-130" source="F0Dnd6pqvIeHIEO3UCSV-132">
          <mxGeometry relative="1" as="geometry">
            <mxPoint x="157.66666666666652" y="52.666666666666515" as="targetPoint" />
          </mxGeometry>
        </mxCell>
        <mxCell id="F0Dnd6pqvIeHIEO3UCSV-132" value="forward" style="rounded=0;whiteSpace=wrap;html=1;" vertex="1" parent="F0Dnd6pqvIeHIEO3UCSV-130">
          <mxGeometry y="35" width="82" height="35" as="geometry" />
        </mxCell>
        <mxCell id="F0Dnd6pqvIeHIEO3UCSV-133" value="&lt;b&gt;Level1&lt;/b&gt;" style="rounded=0;whiteSpace=wrap;html=1;" vertex="1" parent="F0Dnd6pqvIeHIEO3UCSV-130">
          <mxGeometry y="70" width="82" height="35" as="geometry" />
        </mxCell>
        <mxCell id="F0Dnd6pqvIeHIEO3UCSV-160" value="" style="group" vertex="1" connectable="0" parent="1">
          <mxGeometry x="811" y="1058" width="120" height="340" as="geometry" />
        </mxCell>
        <mxCell id="F0Dnd6pqvIeHIEO3UCSV-134" value="&lt;b&gt;SkipListNode&lt;/b&gt;" style="rounded=0;whiteSpace=wrap;html=1;fontSize=15;" vertex="1" parent="F0Dnd6pqvIeHIEO3UCSV-160">
          <mxGeometry y="280" width="120" height="60" as="geometry" />
        </mxCell>
        <mxCell id="F0Dnd6pqvIeHIEO3UCSV-135" value="backward" style="rounded=0;whiteSpace=wrap;html=1;fontSize=15;" vertex="1" parent="F0Dnd6pqvIeHIEO3UCSV-160">
          <mxGeometry y="220" width="120" height="60" as="geometry" />
        </mxCell>
        <mxCell id="F0Dnd6pqvIeHIEO3UCSV-136" value="score" style="rounded=0;whiteSpace=wrap;html=1;fontSize=15;" vertex="1" parent="F0Dnd6pqvIeHIEO3UCSV-160">
          <mxGeometry y="160" width="120" height="60" as="geometry" />
        </mxCell>
        <mxCell id="F0Dnd6pqvIeHIEO3UCSV-137" value="level[]&lt;div&gt;&lt;br&gt;&lt;/div&gt;" style="rounded=0;whiteSpace=wrap;html=1;fontSize=15;verticalAlign=top;" vertex="1" parent="F0Dnd6pqvIeHIEO3UCSV-160">
          <mxGeometry width="120" height="160" as="geometry" />
        </mxCell>
        <mxCell id="F0Dnd6pqvIeHIEO3UCSV-138" value="" style="group" vertex="1" connectable="0" parent="F0Dnd6pqvIeHIEO3UCSV-160">
          <mxGeometry x="20" y="38" width="82" height="105" as="geometry" />
        </mxCell>
        <mxCell id="F0Dnd6pqvIeHIEO3UCSV-139" value="span" style="rounded=0;whiteSpace=wrap;html=1;" vertex="1" parent="F0Dnd6pqvIeHIEO3UCSV-138">
          <mxGeometry width="82" height="35" as="geometry" />
        </mxCell>
        <mxCell id="F0Dnd6pqvIeHIEO3UCSV-169" style="edgeStyle=orthogonalEdgeStyle;rounded=0;orthogonalLoop=1;jettySize=auto;html=1;exitX=1;exitY=0.5;exitDx=0;exitDy=0;" edge="1" parent="F0Dnd6pqvIeHIEO3UCSV-138" source="F0Dnd6pqvIeHIEO3UCSV-140">
          <mxGeometry relative="1" as="geometry">
            <mxPoint x="157" y="52.666666666666515" as="targetPoint" />
          </mxGeometry>
        </mxCell>
        <mxCell id="F0Dnd6pqvIeHIEO3UCSV-140" value="forward" style="rounded=0;whiteSpace=wrap;html=1;" vertex="1" parent="F0Dnd6pqvIeHIEO3UCSV-138">
          <mxGeometry y="35" width="82" height="35" as="geometry" />
        </mxCell>
        <mxCell id="F0Dnd6pqvIeHIEO3UCSV-141" value="&lt;b&gt;Level1&lt;/b&gt;" style="rounded=0;whiteSpace=wrap;html=1;" vertex="1" parent="F0Dnd6pqvIeHIEO3UCSV-138">
          <mxGeometry y="70" width="82" height="35" as="geometry" />
        </mxCell>
        <mxCell id="F0Dnd6pqvIeHIEO3UCSV-161" value="" style="group" vertex="1" connectable="0" parent="1">
          <mxGeometry x="993" y="815" width="120" height="583" as="geometry" />
        </mxCell>
        <mxCell id="F0Dnd6pqvIeHIEO3UCSV-86" value="&lt;b&gt;SkipListNode&lt;/b&gt;" style="rounded=0;whiteSpace=wrap;html=1;fontSize=15;" vertex="1" parent="F0Dnd6pqvIeHIEO3UCSV-161">
          <mxGeometry y="523" width="120" height="60" as="geometry" />
        </mxCell>
        <mxCell id="F0Dnd6pqvIeHIEO3UCSV-87" value="backward" style="rounded=0;whiteSpace=wrap;html=1;fontSize=15;" vertex="1" parent="F0Dnd6pqvIeHIEO3UCSV-161">
          <mxGeometry y="463" width="120" height="60" as="geometry" />
        </mxCell>
        <mxCell id="F0Dnd6pqvIeHIEO3UCSV-88" value="score" style="rounded=0;whiteSpace=wrap;html=1;fontSize=15;" vertex="1" parent="F0Dnd6pqvIeHIEO3UCSV-161">
          <mxGeometry y="403" width="120" height="60" as="geometry" />
        </mxCell>
        <mxCell id="F0Dnd6pqvIeHIEO3UCSV-89" value="level[]&lt;div&gt;&lt;br&gt;&lt;/div&gt;" style="rounded=0;whiteSpace=wrap;html=1;fontSize=15;verticalAlign=top;" vertex="1" parent="F0Dnd6pqvIeHIEO3UCSV-161">
          <mxGeometry width="120" height="403" as="geometry" />
        </mxCell>
        <mxCell id="F0Dnd6pqvIeHIEO3UCSV-90" value="" style="group" vertex="1" connectable="0" parent="F0Dnd6pqvIeHIEO3UCSV-161">
          <mxGeometry x="19" y="47" width="82" height="105" as="geometry" />
        </mxCell>
        <mxCell id="F0Dnd6pqvIeHIEO3UCSV-91" value="span" style="rounded=0;whiteSpace=wrap;html=1;" vertex="1" parent="F0Dnd6pqvIeHIEO3UCSV-90">
          <mxGeometry width="82" height="35" as="geometry" />
        </mxCell>
        <mxCell id="F0Dnd6pqvIeHIEO3UCSV-92" value="forward" style="rounded=0;whiteSpace=wrap;html=1;" vertex="1" parent="F0Dnd6pqvIeHIEO3UCSV-90">
          <mxGeometry y="35" width="82" height="35" as="geometry" />
        </mxCell>
        <mxCell id="F0Dnd6pqvIeHIEO3UCSV-93" value="&lt;b&gt;Level3&lt;/b&gt;" style="rounded=0;whiteSpace=wrap;html=1;" vertex="1" parent="F0Dnd6pqvIeHIEO3UCSV-90">
          <mxGeometry y="70" width="82" height="35" as="geometry" />
        </mxCell>
        <mxCell id="F0Dnd6pqvIeHIEO3UCSV-94" value="" style="group" vertex="1" connectable="0" parent="F0Dnd6pqvIeHIEO3UCSV-161">
          <mxGeometry x="20" y="163" width="82" height="105" as="geometry" />
        </mxCell>
        <mxCell id="F0Dnd6pqvIeHIEO3UCSV-95" value="span" style="rounded=0;whiteSpace=wrap;html=1;" vertex="1" parent="F0Dnd6pqvIeHIEO3UCSV-94">
          <mxGeometry width="82" height="35" as="geometry" />
        </mxCell>
        <mxCell id="F0Dnd6pqvIeHIEO3UCSV-96" value="forward" style="rounded=0;whiteSpace=wrap;html=1;" vertex="1" parent="F0Dnd6pqvIeHIEO3UCSV-94">
          <mxGeometry y="35" width="82" height="35" as="geometry" />
        </mxCell>
        <mxCell id="F0Dnd6pqvIeHIEO3UCSV-97" value="&lt;b&gt;Level2&lt;/b&gt;" style="rounded=0;whiteSpace=wrap;html=1;" vertex="1" parent="F0Dnd6pqvIeHIEO3UCSV-94">
          <mxGeometry y="70" width="82" height="35" as="geometry" />
        </mxCell>
        <mxCell id="F0Dnd6pqvIeHIEO3UCSV-98" value="" style="group" vertex="1" connectable="0" parent="F0Dnd6pqvIeHIEO3UCSV-161">
          <mxGeometry x="20" y="281" width="82" height="105" as="geometry" />
        </mxCell>
        <mxCell id="F0Dnd6pqvIeHIEO3UCSV-99" value="span" style="rounded=0;whiteSpace=wrap;html=1;" vertex="1" parent="F0Dnd6pqvIeHIEO3UCSV-98">
          <mxGeometry width="82" height="35" as="geometry" />
        </mxCell>
        <mxCell id="F0Dnd6pqvIeHIEO3UCSV-170" style="edgeStyle=orthogonalEdgeStyle;rounded=0;orthogonalLoop=1;jettySize=auto;html=1;exitX=1;exitY=0.5;exitDx=0;exitDy=0;" edge="1" parent="F0Dnd6pqvIeHIEO3UCSV-98" source="F0Dnd6pqvIeHIEO3UCSV-100">
          <mxGeometry relative="1" as="geometry">
            <mxPoint x="170.55555555555566" y="52.666666666666515" as="targetPoint" />
          </mxGeometry>
        </mxCell>
        <mxCell id="F0Dnd6pqvIeHIEO3UCSV-100" value="forward" style="rounded=0;whiteSpace=wrap;html=1;" vertex="1" parent="F0Dnd6pqvIeHIEO3UCSV-98">
          <mxGeometry y="35" width="82" height="35" as="geometry" />
        </mxCell>
        <mxCell id="F0Dnd6pqvIeHIEO3UCSV-101" value="&lt;b&gt;Level1&lt;/b&gt;" style="rounded=0;whiteSpace=wrap;html=1;" vertex="1" parent="F0Dnd6pqvIeHIEO3UCSV-98">
          <mxGeometry y="70" width="82" height="35" as="geometry" />
        </mxCell>
        <mxCell id="F0Dnd6pqvIeHIEO3UCSV-162" value="" style="group" vertex="1" connectable="0" parent="1">
          <mxGeometry x="1189" y="1058" width="120" height="340" as="geometry" />
        </mxCell>
        <mxCell id="F0Dnd6pqvIeHIEO3UCSV-142" value="&lt;b&gt;SkipListNode&lt;/b&gt;" style="rounded=0;whiteSpace=wrap;html=1;fontSize=15;" vertex="1" parent="F0Dnd6pqvIeHIEO3UCSV-162">
          <mxGeometry y="280" width="120" height="60" as="geometry" />
        </mxCell>
        <mxCell id="F0Dnd6pqvIeHIEO3UCSV-143" value="backward" style="rounded=0;whiteSpace=wrap;html=1;fontSize=15;" vertex="1" parent="F0Dnd6pqvIeHIEO3UCSV-162">
          <mxGeometry y="220" width="120" height="60" as="geometry" />
        </mxCell>
        <mxCell id="F0Dnd6pqvIeHIEO3UCSV-144" value="score" style="rounded=0;whiteSpace=wrap;html=1;fontSize=15;" vertex="1" parent="F0Dnd6pqvIeHIEO3UCSV-162">
          <mxGeometry y="160" width="120" height="60" as="geometry" />
        </mxCell>
        <mxCell id="F0Dnd6pqvIeHIEO3UCSV-145" value="level[]&lt;div&gt;&lt;br&gt;&lt;/div&gt;" style="rounded=0;whiteSpace=wrap;html=1;fontSize=15;verticalAlign=top;" vertex="1" parent="F0Dnd6pqvIeHIEO3UCSV-162">
          <mxGeometry width="120" height="160" as="geometry" />
        </mxCell>
        <mxCell id="F0Dnd6pqvIeHIEO3UCSV-146" value="" style="group" vertex="1" connectable="0" parent="F0Dnd6pqvIeHIEO3UCSV-162">
          <mxGeometry x="20" y="38" width="82" height="105" as="geometry" />
        </mxCell>
        <mxCell id="F0Dnd6pqvIeHIEO3UCSV-147" value="span" style="rounded=0;whiteSpace=wrap;html=1;" vertex="1" parent="F0Dnd6pqvIeHIEO3UCSV-146">
          <mxGeometry width="82" height="35" as="geometry" />
        </mxCell>
        <mxCell id="F0Dnd6pqvIeHIEO3UCSV-148" value="forward" style="rounded=0;whiteSpace=wrap;html=1;" vertex="1" parent="F0Dnd6pqvIeHIEO3UCSV-146">
          <mxGeometry y="35" width="82" height="35" as="geometry" />
        </mxCell>
        <mxCell id="F0Dnd6pqvIeHIEO3UCSV-149" value="&lt;b&gt;Level1&lt;/b&gt;" style="rounded=0;whiteSpace=wrap;html=1;" vertex="1" parent="F0Dnd6pqvIeHIEO3UCSV-146">
          <mxGeometry y="70" width="82" height="35" as="geometry" />
        </mxCell>
        <mxCell id="F0Dnd6pqvIeHIEO3UCSV-163" style="edgeStyle=orthogonalEdgeStyle;rounded=0;orthogonalLoop=1;jettySize=auto;html=1;exitX=1;exitY=0.5;exitDx=0;exitDy=0;entryX=-0.025;entryY=0.563;entryDx=0;entryDy=0;entryPerimeter=0;" edge="1" parent="1" source="F0Dnd6pqvIeHIEO3UCSV-84" target="F0Dnd6pqvIeHIEO3UCSV-105">
          <mxGeometry relative="1" as="geometry" />
        </mxCell>
        <mxCell id="F0Dnd6pqvIeHIEO3UCSV-164" style="edgeStyle=orthogonalEdgeStyle;rounded=0;orthogonalLoop=1;jettySize=auto;html=1;exitX=1;exitY=0.5;exitDx=0;exitDy=0;entryX=0.017;entryY=0.321;entryDx=0;entryDy=0;entryPerimeter=0;" edge="1" parent="1" source="F0Dnd6pqvIeHIEO3UCSV-80" target="F0Dnd6pqvIeHIEO3UCSV-121">
          <mxGeometry relative="1" as="geometry" />
        </mxCell>
        <mxCell id="F0Dnd6pqvIeHIEO3UCSV-171" value="&lt;b style=&quot;font-size: 17px;&quot;&gt;跳表SkipList的一个示意图&lt;/b&gt;" style="text;html=1;align=center;verticalAlign=middle;resizable=0;points=[];autosize=1;strokeColor=none;fillColor=none;fontSize=17;" vertex="1" parent="1">
          <mxGeometry x="577" y="741" width="220" height="32" as="geometry" />
        </mxCell>
      </root>
    </mxGraphModel>
  </diagram>
</mxfile>
